<svg xmlns:xlink="http://www.w3.org/1999/xlink" xmlns="http://www.w3.org/2000/svg" viewBox="0 0 24 24" width="24" height="24" class="d Vb egaXP UmNoP" aria-hidden="true"><path d="m9.412 22.286-7.63-7.89 1.87-1.87 3.39.6c.08 0 .5 0 .73-.21l2.15-2.08c.02-.05.04-.13.04-.16 0-.02-.07-.1-.26-.19l-7.2-3.32 2.74-2.68 8.83 1.59c.2.02.49.02.62 0l3.21-3.24c.86-.78 2.58-1.75 3.76-.58 1.17 1.17.24 2.88-.49 3.71l-3.16 3.23c-.02.06-.05.24.01.61l1.52 8.83-2.7 2.43-3.29-6.84a.5.5 0 0 0-.18-.14l-2.49 2.33s-.01.15.01.3l.55 3.62-2.04 1.95zm-5.53-7.87 5.57 5.75.4-.38-.43-2.85c-.16-1.04.25-1.5.51-1.68l2.42-2.24c.45-.42.91-.46 1.2-.43.73.08 1.18.69 1.27.81l.06.1 2.45 5.1.59-.54-1.38-8.01c-.21-1.22.19-1.75.44-1.96l3.09-3.15c.25-.29.89-1.26.53-1.63-.36-.36-1.36.32-1.66.6l-3.27 3.29c-.47.45-1.35.42-1.83.35l-8.1-1.45-.63.62 5.21 2.4c.73.33.99.82 1.08 1.17.2.75-.23 1.38-.28 1.45l-.09.11-2.24 2.17c-.78.71-1.85.62-1.96.6l-2.67-.47-.27.27z" fill="#333333"></path></svg>