<svg xmlns:xlink="http://www.w3.org/1999/xlink" xmlns="http://www.w3.org/2000/svg" class="evwcZ" viewBox="0 0 128 24" width="68" height="12" aria-labelledby=":lithium-R5oklaairlbqauen9:" data-automation="bubbleRatingImage"><title id=":lithium-R5oklaairlbqauen9:" fill="#00A568">5 of 5 bubbles</title><path d="M 12 0C5.388 0 0 5.388 0 12s5.388 12 12 12 12-5.38 12-12c0-6.612-5.38-12-12-12z" transform="" fill="#00A568"></path><path d="M 12 0C5.388 0 0 5.388 0 12s5.388 12 12 12 12-5.38 12-12c0-6.612-5.38-12-12-12z" transform="translate(26 0)" fill="#00A568"></path><path d="M 12 0C5.388 0 0 5.388 0 12s5.388 12 12 12 12-5.38 12-12c0-6.612-5.38-12-12-12z" transform="translate(52 0)" fill="#00A568"></path><path d="M 12 0C5.388 0 0 5.388 0 12s5.388 12 12 12 12-5.38 12-12c0-6.612-5.38-12-12-12z" transform="translate(78 0)" fill="#00A568"></path><path d="M 12 0C5.388 0 0 5.388 0 12s5.388 12 12 12 12-5.38 12-12c0-6.612-5.38-12-12-12z" transform="translate(104 0)" fill="#00A568"></path></svg>