<svg xmlns:xlink="http://www.w3.org/1999/xlink" xmlns="http://www.w3.org/2000/svg" viewBox="0 0 24 24" width="24" height="24" class="d Vb UmNoP" aria-hidden="true"><path d="M12.008 2C6.481 2 2 6.474 2 11.992c0 4.235 2.636 7.853 6.36 9.309-.091-.79-.166-2.007.032-2.87.181-.781 1.17-4.967 1.17-4.967s-.297-.6-.297-1.48c0-1.39.807-2.426 1.812-2.426.857 0 1.269.641 1.269 1.406 0 .855-.544 2.138-.832 3.33-.239.995.503 1.81 1.483 1.81 1.779 0 3.146-1.875 3.146-4.573 0-2.393-1.721-4.062-4.184-4.062-2.85 0-4.522 2.13-4.522 4.334 0 .855.329 1.776.74 2.278a.3.3 0 0 1 .067.287c-.074.313-.247.995-.28 1.135-.041.181-.149.222-.338.132-1.252-.584-2.035-2.401-2.035-3.873 0-3.15 2.29-6.045 6.615-6.045 3.468 0 6.17 2.467 6.17 5.773 0 3.446-2.175 6.217-5.19 6.217-1.013 0-1.969-.526-2.29-1.151l-.626 2.377c-.222.871-.832 1.957-1.244 2.623.94.288 1.928.444 2.966.444C17.519 22 22 17.526 22 12.008 22.016 6.474 17.535 2 12.008 2"></path></svg>